<svg width="38" height="43" viewBox="0 0 38 43" fill="none" xmlns="http://www.w3.org/2000/svg">
<path d="M8.02074 2.88728C8.57238 2.25521 8.50717 1.29563 7.8751 0.743994C7.24303 0.192358 6.28344 0.257564 5.73181 0.889634L3.11541 3.88753C1.6313 5.58805 0.792325 7.75624 0.745261 10.0128L0.630464 15.5171C0.612971 16.3558 1.27874 17.05 2.11749 17.0675C2.95624 17.085 3.65037 16.4192 3.66786 15.5804L3.78266 10.0762C3.81486 8.53219 4.3889 7.04869 5.40434 5.88518L8.02074 2.88728Z" fill="#7A7A7A"/>
<path fill-rule="evenodd" clip-rule="evenodd" d="M7.63228 13.597C7.91359 9.0992 11.6435 5.59528 16.1501 5.59528H17.2791V4.07625C17.2791 2.95767 18.1859 2.05088 19.3045 2.05088C20.4231 2.05088 21.3298 2.95767 21.3298 4.07625V5.59528H22.4588C26.9654 5.59528 30.6953 9.0992 30.9766 13.597L31.4243 20.7536C31.5949 23.4822 32.511 26.1116 34.0727 28.3556C35.4837 30.3831 34.2275 33.1833 31.7749 33.4776L24.8743 34.3057V36.4822C24.8743 39.5583 22.3806 42.052 19.3045 42.052C16.2284 42.052 13.7347 39.5583 13.7347 36.4822V34.3057L6.83399 33.4776C4.3814 33.1833 3.12522 30.3831 4.53626 28.3556C6.09795 26.1116 7.014 23.4822 7.18466 20.7536L7.63228 13.597ZM16.7728 36.4822C16.7728 37.8805 17.9062 39.014 19.3045 39.014C20.7027 39.014 21.8362 37.8805 21.8362 36.4822V34.9632H16.7728V36.4822Z" fill="#7A7A7A"/>
<path d="M30.7339 0.743996C30.1018 1.29563 30.0366 2.25522 30.5882 2.88729L33.2046 5.88518C34.2201 7.0487 34.7941 8.5322 34.8263 10.0762L34.9411 15.5804C34.9586 16.4192 35.6527 17.085 36.4915 17.0675C37.3302 17.05 37.996 16.3559 37.9785 15.5171L37.8637 10.0128C37.8166 7.75624 36.9777 5.58805 35.4935 3.88753L32.8771 0.889636C32.3255 0.257566 31.3659 0.19236 30.7339 0.743996Z" fill="#7A7A7A"/>
</svg>
