<svg width="43" height="35" viewBox="0 0 43 35" fill="none" xmlns="http://www.w3.org/2000/svg">
<path d="M12.95 0.468758C6.34546 0.468758 0.71875 5.4071 0.71875 11.8208C0.71875 16.2453 2.79057 19.9703 5.53641 23.056C8.27282 26.1311 11.8032 28.7123 14.9948 30.8727L20.5015 34.6001C21.1046 35.0083 21.8954 35.0083 22.4985 34.6001L28.0052 30.8727C31.1968 28.7123 34.7272 26.1311 37.4636 23.056C40.2094 19.9703 42.2812 16.2453 42.2812 11.8208C42.2812 5.4071 36.6545 0.468758 30.05 0.468758C26.6455 0.468758 23.6498 2.06509 21.5 4.13061C19.3502 2.06509 16.3545 0.468758 12.95 0.468758Z" fill="#7A7A7A"/>
</svg>
